<svg id="cat" xmlns="http://www.w3.org/2000/svg" xmlns:xlink="http://www.w3.org/1999/xlink" viewBox="0 0 600 400" shape-rendering="geometricPrecision" text-rendering="geometricPrecision"><style><![CDATA[#cat-s-rect3_to {animation: cat-s-rect3_to__to 3000ms linear infinite normal forwards}@keyframes cat-s-rect3_to__to { 0% {transform: translate(333px,135px)} 6.666667% {transform: translate(333.0026px,146.051254px)} 13.333333% {transform: translate(333.0026px,135px)} 100% {transform: translate(333.0026px,135px)}} #cat-s-rect5_to {animation: cat-s-rect5_to__to 3000ms linear infinite normal forwards}@keyframes cat-s-rect5_to__to { 0% {transform: translate(395px,135px)} 6.666667% {transform: translate(393px,146.051254px)} 13.333333% {transform: translate(393px,135px)} 100% {transform: translate(393px,135px)}}]]></style><line id="cat-u-ground" x1="160" y1="360" x2="410" y2="360" fill="none" stroke="#e2e2f2" stroke-width="16" stroke-linecap="round" stroke-miterlimit="10"/><g id="cat-u-front-legs"><path id="cat-u-leg" d="M225,260v78" fill="none" stroke="#eba13d" stroke-width="28" stroke-linecap="round"/><path id="cat-u-leg2" d="M340,260v78" fill="none" stroke="#eba13d" stroke-width="28" stroke-linecap="round"/></g><g id="cat-u-body"><path id="cat-u-tail" d="M208,240c0,0-35.8682-1.5507-46-42-5.4932-25.33-9.237-40.5144-32-48" fill="none" stroke="#eba13d" stroke-width="28" stroke-linecap="round" stroke-miterlimit="10"/><g id="cat-u-body2"><rect id="cat-s-rect1" width="200" height="118" rx="58.9999" ry="58.9999" transform="translate(190 201)" fill="#eba13d"/><path id="cat-s-path1" d="M277,234c-8.09.8989-14.5641-27.2905-15.7905-33h20.0554c.9051,7.3027,3.4091,32.1473-4.2649,33Z" fill="#d48533"/><path id="cat-s-path2" d="M255.2144,201c1.3944,6.6367,8.81,43.0887-1.2144,44-10.2225.9293-17.854-36.8682-18.8819-42.3576C242,201,245,201,255.2144,201Z" fill="#d48533"/><path id="cat-s-path3" d="M209.4213,216.2441c6.049094-5.480876,13.170576-9.64569,20.9133-12.2306C231,208,237,241,228,243s-18.5787-26.756-18.5787-26.756Z" fill="#d48533"/></g><circle id="cat-s-circle1" r="11" transform="translate(362 253)" fill="#ffdf45"/><path id="cat-u-collar" d="M282,199c0,0,11.57,23.2994,44.647,31.9507c13.5562,2.9386,26.3219,6.4642,54.353-2.1871" fill="none" stroke="#ac1515" stroke-width="12" stroke-linecap="round" stroke-miterlimit="10"/><g id="cat-u-head"><g id="cat-u-ears"><g id="cat-u-left-ear"><path id="cat-s-path4" d="M330.99,121.98c5.478,16.8814-1.0848,34.1494-14.66,38.5741s-29.0272-5.6826-34.4857-22.5639c-8.1218-25.0308,1.1923-49.3569,10.2133-52.2936c8.2976-2.7115,30.7571,11.0911,38.9326,36.2835Z" fill="#eba13d"/><path id="cat-s-path5" d="M325.1129,122.783c4.2608,13.33-.84,26.9652-11.3975,30.4548s-22.5683-4.486-26.8291-17.8164c-6.3164-19.76.9265-38.9655,7.9378-41.2871c6.4756-2.14,23.9337,8.7561,30.2888,28.6487Z" fill="#d48533"/></g><g id="cat-u-right-ear"><path id="cat-s-path6" d="M372.01,121.98c-5.478,16.8814,1.0849,34.1494,14.66,38.5741s29.0273-5.6826,34.4857-22.5639c8.1218-25.0308-1.1923-49.3569-10.2133-52.2936-8.2977-2.7112-30.7572,11.0914-38.9324,36.2834Z" fill="#eba13d"/><path id="cat-s-path7" d="M377.8871,122.783c-4.2608,13.33.84,26.9652,11.3976,30.4548s22.5682-4.486,26.829-17.8164c6.3164-19.76-.9265-38.9655-7.9378-41.2871-6.4756-2.14-23.9337,8.7561-30.2888,28.6487Z" fill="#d48533"/></g></g><path id="cat-u-head2" d="M430,164.265C430,207.417,395.0771,231,352,231s-78-23.583-78-66.735s41.7189-75.265,78-75.265c35.439.02,78,32.1331,78,75.265Z" fill="#eba13d"/><g id="cat-u-face"><g id="cat-u-left-eye"><path id="cat-s-path8" d="M320,156c0-7.179702,5.820298-13,13-13s13,5.820298,13,13-5.820298,13-13,13-13-5.820298-13-13Z" fill="#33281b"/><rect id="cat-s-rect2" width="30" height="16" rx="0" ry="0" transform="translate(318.0026 170)" fill="#eba13d"/><g id="cat-s-rect3_to" transform="translate(333,135)"><rect id="cat-s-rect3" width="30" height="16" rx="0" ry="0" transform="translate(-15,-8)" fill="#eba13d"/></g></g><g id="cat-u-right-eye"><path id="cat-s-path9" d="M382,156c0-7.179702,5.820298-13,13-13s13,5.820298,13,13-5.820298,13-13,13-13-5.820298-13-13Z" fill="#33281b"/><rect id="cat-s-rect4" width="30" height="16" rx="0" ry="0" transform="translate(380 169)" fill="#eba13d"/><g id="cat-s-rect5_to" transform="translate(395,135)"><rect id="cat-s-rect5" width="30" height="16" rx="0" ry="0" transform="translate(-15,-8)" fill="#eba13d"/></g></g><g id="cat-u-whiskers"><line id="cat-s-line1" x1="331" y1="179" x2="273" y2="170" fill="none" stroke="#33281b" stroke-width="3.4" stroke-linecap="round" stroke-miterlimit="10"/><line id="cat-s-line2" x1="273" y1="193" x2="331" y2="185" fill="none" stroke="#33281b" stroke-width="3.4" stroke-linecap="round" stroke-miterlimit="10"/><line id="cat-s-line3" x1="397" y1="179" x2="455" y2="171" fill="none" stroke="#33281b" stroke-width="3.4" stroke-linecap="round" stroke-miterlimit="10"/><line id="cat-s-line4" x1="455" y1="193" x2="397" y2="185" fill="none" stroke="#33281b" stroke-width="3.4" stroke-linecap="round" stroke-miterlimit="10"/></g><g id="cat-u-nose"><path id="cat-s-path10" d="M389,184.4848C389,196.0818,377.8071,208,364,208s-25-11.9182-25-23.5152C339,176.4523,350.1929,166,364,166s25,10.3117,25,18.4848Z" fill="#fff"/><path id="cat-u-nose2" d="M373,176.816c0,2.3844-4.0269,6.684-9,6.684s-9-4.3-9-6.684s4.0269-4.316,9-4.316s9,1.9316,9,4.316Z" fill="#33281b"/><path id="cat-u-mouth" d="M348.0026,183c.110619,4.338134,3.659156,7.797339,7.9987,7.797339s7.888081-3.459205,7.9987-7.797339c0,4.418996,3.582304,8.0013,8.0013,8.0013s8.0013-3.582304,8.0013-8.0013" fill="none" stroke="#33281b" stroke-width="3.4" stroke-linecap="round" stroke-linejoin="round"/></g></g></g></g></svg>